<?xml version="1.0" standalone="no"?>
<!DOCTYPE svg PUBLIC "-//W3C//DTD SVG 20010904//EN"
 "http://www.w3.org/TR/2001/REC-SVG-20010904/DTD/svg10.dtd">
<svg version="1.0" xmlns="http://www.w3.org/2000/svg"
 width="700.000000pt" height="700.000000pt" viewBox="0 0 700.000000 700.000000"
 preserveAspectRatio="xMidYMid meet">
<metadata>
Created by potrace 1.11, written by Peter Selinger 2001-2013
</metadata>
<g transform="translate(0.000000,700.000000) scale(0.100000,-0.100000)"
fill="#000000" stroke="none">
<path d="M230 5110 c-11 -11 -20 -29 -20 -39 0 -22 35 -51 61 -51 46 0 153
-44 190 -77 89 -81 109 -165 109 -476 l0 -227 26 -10 c40 -16 636 -13 656 3
25 19 57 88 70 151 11 49 9 71 -9 167 -25 127 -46 165 -117 219 -28 22 -63 49
-78 60 -36 28 -36 63 0 88 42 29 68 32 195 21 256 -22 457 -127 573 -301 101
-149 113 -230 113 -728 1 -413 -8 -522 -48 -626 -72 -185 -209 -305 -441 -387
-74 -26 -102 -30 -220 -34 -123 -4 -138 -2 -167 16 -45 28 -44 62 3 98 87 67
120 97 141 127 22 32 63 200 63 262 0 45 -33 146 -59 183 l-22 31 -317 0
c-174 0 -327 -3 -340 -6 l-22 -6 0 -232 c0 -312 -20 -400 -106 -476 -44 -38
-83 -56 -156 -71 -92 -19 -122 -54 -80 -92 17 -16 84 -17 763 -17 791 0 839 3
1007 50 278 78 527 291 656 560 20 41 36 80 36 86 0 6 6 17 14 24 12 9 16 5
21 -27 50 -288 122 -440 265 -558 200 -165 522 -240 825 -190 192 31 342 102
456 215 94 94 136 173 184 346 78 284 51 576 -70 764 -75 117 -160 192 -301
264 -194 99 -535 121 -781 51 -219 -63 -365 -175 -470 -360 -26 -46 -51 -85
-54 -85 -3 0 -9 73 -12 163 -12 363 -110 615 -321 822 -190 187 -406 283 -706
315 -53 5 -403 10 -792 10 -685 0 -698 0 -718 -20z m3463 -982 c104 -31 204
-178 248 -365 21 -86 24 -122 24 -293 0 -175 -3 -207 -28 -318 -40 -183 -103
-289 -205 -350 -41 -23 -58 -27 -128 -27 -73 0 -86 3 -130 30 -97 60 -154 166
-201 373 -24 104 -27 138 -27 312 -1 174 2 205 23 290 60 238 169 360 325 360
32 0 77 -5 99 -12z"/>
<path d="M5193 5070 c-91 -19 -164 -72 -208 -152 -26 -46 -30 -63 -29 -133 0
-62 5 -89 21 -120 46 -89 118 -139 225 -160 65 -12 83 -12 138 1 100 23 170
78 206 162 20 47 23 175 5 226 -19 54 -92 130 -149 154 -56 24 -151 34 -209
22z"/>
<path d="M6198 4798 c-19 -18 -93 -95 -163 -170 -128 -138 -189 -188 -296
-239 -122 -59 -342 -83 -665 -73 -198 6 -214 5 -257 -14 -94 -42 -68 -101 63
-144 45 -16 89 -33 96 -39 21 -17 20 -1224 0 -1272 -19 -45 -52 -71 -121 -97
-33 -12 -68 -29 -77 -37 -25 -23 -22 -56 8 -84 24 -22 32 -24 127 -23 56 1
258 3 449 4 333 1 348 2 373 22 21 16 25 27 23 56 -4 46 -43 74 -123 90 -72
15 -124 46 -140 86 -10 24 -14 170 -16 616 -4 554 -3 587 14 614 53 80 256 81
296 2 7 -14 12 -213 14 -566 4 -524 5 -548 26 -624 37 -132 83 -202 164 -249
48 -28 172 -57 244 -57 77 0 211 37 293 81 154 83 232 161 234 237 1 33 -2 37
-25 40 -16 2 -57 -13 -105 -38 -74 -40 -82 -42 -150 -38 -93 4 -143 35 -170
105 -17 44 -19 92 -22 594 -2 492 -1 548 13 563 14 13 41 16 156 16 160 0 186
7 240 67 83 91 72 210 -13 144 -55 -44 -107 -56 -240 -56 -89 0 -131 4 -140
13 -9 9 -12 70 -11 244 1 149 -2 237 -9 245 -18 22 -53 14 -90 -19z"/>
<path d="M371 2469 c-57 -23 -119 -77 -148 -131 -25 -47 -25 -199 0 -249 41
-82 130 -140 234 -154 57 -7 190 9 241 30 31 14 32 16 32 75 0 35 6 74 15 90
8 16 11 31 7 34 -7 4 -130 9 -170 7 -27 -2 -5 -25 34 -36 39 -11 39 -11 42
-67 3 -50 0 -58 -19 -68 -34 -19 -132 -24 -189 -10 -169 40 -230 296 -100 414
48 43 104 59 190 54 86 -5 143 -33 150 -73 3 -18 12 -31 23 -33 14 -3 17 5 17
52 0 55 0 55 -37 67 -21 6 -90 13 -153 15 -99 3 -122 1 -169 -17z"/>
<path d="M973 2476 c2 -6 12 -13 23 -15 43 -8 44 -14 44 -245 0 -121 -4 -226
-8 -232 -4 -7 -18 -14 -31 -15 -14 -2 -26 -10 -29 -16 -3 -10 23 -13 107 -13
105 0 152 13 94 26 -15 3 -33 7 -40 9 -18 6 -25 99 -22 279 3 118 8 169 17
178 8 8 37 13 72 13 51 0 63 -4 85 -26 29 -29 36 -89 15 -128 -14 -26 -83 -60
-122 -61 -16 0 -28 -2 -28 -4 0 -8 202 -271 213 -278 15 -10 97 -10 97 -1 0 4
-15 23 -34 43 -18 19 -64 75 -101 124 -75 100 -75 95 4 138 40 22 71 74 71
120 0 47 -39 94 -89 108 -52 14 -343 11 -338 -4z"/>
<path d="M1640 2480 c0 -5 16 -14 35 -20 l35 -12 0 -176 c0 -97 5 -194 9 -216
19 -82 86 -118 217 -119 83 0 144 27 181 82 22 32 23 43 23 207 0 95 4 184 10
199 6 15 22 30 40 36 16 6 30 15 30 20 0 11 -173 12 -184 2 -4 -4 8 -14 26
-23 l33 -15 0 -197 c0 -193 0 -197 -24 -222 -54 -58 -205 -54 -256 6 -25 29
-25 31 -25 223 l0 194 32 9 c17 4 33 13 35 19 3 8 -30 11 -106 11 -61 0 -111
-4 -111 -8z"/>
<path d="M2410 2481 c0 -5 15 -14 34 -21 28 -9 34 -17 40 -48 8 -48 6 -322 -2
-387 -6 -45 -10 -50 -36 -55 -16 -3 -31 -11 -34 -18 -3 -10 20 -12 107 -10 65
2 111 7 111 13 1 6 -10 12 -22 13 -47 8 -48 12 -48 243 0 259 -2 253 98 247
83 -5 112 -33 112 -107 0 -75 -53 -123 -129 -118 -13 1 -26 -3 -28 -10 -6 -18
40 -26 95 -18 38 6 56 16 93 53 57 58 69 105 42 160 -31 63 -62 72 -260 72
-99 0 -173 -4 -173 -9z"/>
<path d="M3200 2471 c-60 -25 -133 -105 -151 -167 -30 -109 -3 -227 69 -297
140 -137 400 -77 479 111 20 46 22 164 4 215 -19 55 -68 106 -126 133 -65 31
-205 33 -275 5z m238 -43 c93 -62 127 -227 70 -349 -32 -71 -78 -101 -159
-107 -140 -10 -229 96 -228 273 0 147 71 219 210 213 52 -3 75 -9 107 -30z"/>
<path d="M4170 2479 c0 -5 13 -15 29 -24 28 -14 29 -18 36 -112 11 -141 -2
-353 -22 -375 -14 -16 -14 -18 0 -24 9 -3 81 -4 159 -2 137 3 145 4 197 33
197 109 210 402 21 489 -40 19 -66 21 -232 22 -104 1 -188 -2 -188 -7z m366
-52 c71 -37 107 -106 107 -203 -1 -86 -24 -146 -76 -191 -43 -38 -91 -53 -169
-53 -90 0 -89 -4 -86 243 l3 211 25 8 c38 11 164 2 196 -15z"/>
<path d="M5090 2469 c-96 -43 -150 -123 -158 -230 -9 -125 47 -232 145 -280
69 -33 189 -33 257 0 217 107 236 412 31 507 -68 32 -208 34 -275 3z m221 -32
c87 -46 135 -172 111 -292 -25 -121 -99 -181 -213 -173 -75 5 -125 38 -164
109 -28 50 -30 62 -30 155 0 94 2 103 28 142 57 81 176 107 268 59z"/>
<path d="M5905 2482 c-3 -3 9 -13 27 -22 l33 -15 3 -224 c2 -232 0 -247 -39
-253 -11 -2 -21 -7 -22 -13 -1 -6 39 -11 101 -13 86 -2 102 0 102 13 0 8 -8
15 -19 15 -39 0 -41 19 -39 251 l3 224 28 13 c15 7 27 17 27 21 0 9 -196 12
-205 3z"/>
<path d="M6320 2429 c0 -61 15 -79 26 -31 11 46 22 52 90 52 l64 0 0 -227 c0
-126 -4 -233 -8 -239 -4 -7 -18 -14 -31 -15 -14 -2 -26 -10 -29 -16 -3 -10 23
-13 108 -13 85 0 111 3 108 13 -3 6 -14 13 -26 15 -40 6 -43 20 -40 253 l3
224 40 3 c21 2 54 1 71 -3 28 -5 33 -11 36 -37 5 -51 25 -45 30 9 3 26 3 53 0
60 -3 9 -62 12 -223 12 l-219 0 0 -60z"/>
</g>
</svg>
